<svg xmlns="http://www.w3.org/2000/svg" viewBox="0 0 64 64">
  <g data-name="Two Tone">
    <path fill="#2D3748" d="M53 24.27C53 42.63 32 61 32 61S11 42.63 11 24.27a21 21 0 1142 0z"/>
    <circle cx="32" cy="24" r="17" fill="#ffc108"/>
    <path fill="#2D3748" d="M40.32 33a8.3 8.3 0 00.68-3.31c0-3.4-5.66-6.27-8-7.3h-2c-2.34 1.04-8 3.9-8 7.3a8.3 8.3 0 00.68 3.31z"/>
    <g fill="#2D3748">
      <path d="M32 2a22.16 22.16 0 00-22 22.27c0 7.84 3.6 16.54 10.7 25.86a86.5 86.5 0 0010.64 11.62 1 1 0 001.32 0A86.5 86.5 0 0043.3 50.13C50.4 40.8 54 32.1 54 24.27A22.16 22.16 0 0032 2zm0 57.65c-3.53-3.3-20-19.5-20-35.38a20 20 0 1140 0c0 15.88-16.47 32.09-20 35.38z"/>
      <path d="M32 6a18 18 0 1018 18A18.02 18.02 0 0032 6zm0 34a16 16 0 1116-16 16.02 16.02 0 01-16 16z"/>
      <path d="M42 29c0-3.91-6.7-6.82-9-7.7v-2.32l.17.02a5 5 0 003.53-1.46l-1.4-1.42a3 3 0 11-4.25-4.25l-1.42-1.4A4.98 4.98 0 0031 18.48v2.82c-2.3.88-9 3.78-9 7.7a7.93 7.93 0 00.6 3H21v2h22v-2h-1.6a7.93 7.93 0 00.6-3zm-18 0c0-2.22 4.77-4.76 8-5.94 3.23 1.18 8 3.72 8 5.94a5.9 5.9 0 01-.82 3H24.82a5.9 5.9 0 01-.82-3z"/>
    </g>
  </g>
</svg>